<svg width="301" height="103" viewBox="0 0 301 103" fill="none" xmlns="http://www.w3.org/2000/svg">
<path d="M11.6049 0.247781C12.864 0.240115 12.864 0.240115 14.1485 0.232293C16.9279 0.218375 19.7071 0.219356 22.4865 0.221658C24.4184 0.217772 26.3503 0.213437 28.2822 0.208673C32.335 0.201205 36.3876 0.201505 40.4404 0.206765C45.629 0.212553 50.8172 0.195649 56.0057 0.172421C59.9975 0.157672 63.9892 0.156813 67.981 0.15993C69.8935 0.159418 71.806 0.154186 73.7185 0.144119C76.397 0.131752 79.0749 0.138548 81.7534 0.150125C82.9342 0.138659 82.9342 0.138659 84.1389 0.126962C88.9183 0.172514 92.2961 0.768342 96.3733 3.52244C98.8123 6.74886 99.9005 9.81042 100.8 13.7241C101.036 14.7351 101.273 15.7461 101.517 16.7877C101.761 17.8681 102.005 18.9484 102.256 20.0615C102.516 21.1793 102.776 22.2971 103.043 23.4488C103.87 27.0132 104.684 30.5802 105.498 34.1474C106.322 37.7212 107.148 41.2945 107.975 44.8675C108.488 47.0894 108.999 49.3119 109.507 51.535C109.853 53.0421 109.853 53.0421 110.206 54.5796C110.509 55.906 110.509 55.906 110.818 57.2592C111.376 59.6658 111.376 59.6658 112.373 62.5224C112.527 61.9138 112.681 61.3052 112.84 60.6781C114.451 54.3157 116.076 47.9568 117.708 41.5996C118.314 39.23 118.917 36.8595 119.517 34.4883C120.383 31.0703 121.26 27.6556 122.139 24.2412C122.403 23.1888 122.666 22.1364 122.938 21.0521C124.768 14.0109 126.594 7.23405 131.936 2.02244C137.618 -0.457258 143.471 -0.527145 149.311 1.58494C154.54 6.49723 156.404 13.1182 158.283 19.8232C158.537 20.6996 158.791 21.5761 159.052 22.479C159.855 25.262 160.646 28.0483 161.436 30.8349C161.969 32.6939 162.504 34.5526 163.039 36.4111C164.03 39.8508 165.014 43.292 165.995 46.7346C167.408 51.6778 168.885 56.6014 170.373 61.5224C170.703 61.5224 171.033 61.5224 171.373 61.5224C171.504 60.9116 171.636 60.3007 171.771 59.6713C173.141 53.2939 174.522 46.9187 175.908 40.5447C176.424 38.1679 176.937 35.7906 177.447 33.4128C178.183 29.9882 178.928 26.5658 179.674 23.1435C179.899 22.086 180.124 21.0284 180.356 19.9388C183.667 4.88227 183.667 4.88226 190.373 0.522439C193.627 0.0212338 193.627 0.0212338 197.36 0.0207302C198.044 0.0153273 198.727 0.00992428 199.432 0.00435757C201.685 -0.00811373 203.937 0.00836106 206.19 0.0263455C207.768 0.0261903 209.346 0.0246987 210.925 0.0219357C214.234 0.020552 217.543 0.0330946 220.853 0.0558865C225.064 0.0841083 229.273 0.0815781 233.484 0.0687964C236.747 0.0617831 240.009 0.0696949 243.272 0.0820534C244.823 0.0865249 246.373 0.086943 247.923 0.082988C262.704 0.0629502 276.106 1.74647 287.498 11.9599C297.762 22.7784 300.729 36.4369 300.686 50.8349C300.702 51.8991 300.718 52.9632 300.735 54.0595C300.743 67.5869 297.081 79.88 287.686 89.8349C276.137 100.749 263.277 101.896 248.07 101.893C245.68 101.897 243.292 101.934 240.903 101.972C239.368 101.978 237.834 101.981 236.299 101.983C235.593 101.998 234.886 102.012 234.158 102.027C229.1 101.981 226.294 100.648 222.373 97.5224C220.064 95.1696 219.436 94.0507 219.045 90.7607C219.071 89.7952 219.097 88.8297 219.123 87.8349C219.139 86.8617 219.154 85.8885 219.17 84.8857C219.373 82.5224 219.373 82.5224 220.373 81.5224C222.871 81.3869 225.346 81.3118 227.846 81.2763C229.401 81.2434 230.957 81.2102 232.512 81.1767C234.965 81.1296 237.418 81.0852 239.871 81.0456C242.238 81.0055 244.604 80.954 246.971 80.9013C247.692 80.8929 248.413 80.8845 249.156 80.8758C256.5 80.7005 263.34 79.6699 268.834 74.4638C275.484 66.0751 275.8 54.2867 275.155 44.0576C274.323 37.2078 272.943 30.8786 268.373 25.5224C260.615 19.5585 250.186 20.3571 240.873 20.206C239.797 20.1853 238.721 20.1645 237.612 20.1431C234.199 20.0781 230.786 20.0189 227.373 19.9599C225.049 19.9167 222.725 19.8731 220.401 19.8291C214.725 19.7224 209.049 19.6206 203.373 19.5224C203.207 20.496 203.207 20.496 203.038 21.4892C201.766 28.7333 200.19 35.8717 198.475 43.0224C198.199 44.1794 197.922 45.3363 197.638 46.5283C197.056 48.959 196.473 51.3894 195.888 53.8193C195.001 57.5104 194.125 61.2038 193.248 64.8974C192.679 67.2726 192.108 69.6476 191.537 72.0224C191.151 73.6573 191.151 73.6573 190.757 75.3252C185.729 96.0466 185.729 96.0466 179.854 100.573C174.075 102.785 167.444 101.916 161.373 101.522C158.629 94.611 156.587 87.5695 154.58 80.4131C154.229 79.1687 153.879 77.9243 153.517 76.6423C152.779 74.024 152.044 71.4051 151.311 68.7856C150.372 65.4327 149.425 62.0821 148.476 58.7321C147.569 55.5229 146.669 52.3116 145.768 49.1006C145.427 47.8995 145.087 46.6984 144.736 45.461C144.425 44.3459 144.114 43.2309 143.794 42.082C143.382 40.6126 143.382 40.6126 142.96 39.1136C142.373 36.5224 142.373 36.5224 142.373 32.5224C141.713 32.5224 141.053 32.5224 140.373 32.5224C140.265 33.617 140.157 34.7116 140.046 35.8393C139.375 41.1707 138.005 46.2716 136.608 51.4521C136.332 52.4825 136.057 53.5129 135.773 54.5745C135.191 56.7452 134.606 58.9152 134.018 61.0844C133.129 64.3772 132.256 67.6741 131.385 70.9717C130.814 73.0904 130.243 75.2089 129.67 77.3271C129.415 78.3004 129.159 79.2736 128.896 80.2763C126.933 87.422 124.664 95.4895 119.08 100.636C115.383 101.847 111.898 101.843 108.061 101.71C105.498 101.646 102.936 101.584 100.373 101.522C96.9939 90.9998 93.9306 80.4423 91.1662 69.7412C90.7926 68.3067 90.4186 66.8722 90.0442 65.4378C89.0759 61.7235 88.1121 58.0081 87.1494 54.2923C85.9848 49.8014 84.8143 45.3121 83.6448 40.8226C81.8832 34.057 80.1289 27.2896 78.3733 20.5224C60.2233 20.1924 42.0733 19.8624 23.3733 19.5224C23.3733 27.1124 23.3733 34.7024 23.3733 42.5224C37.2333 42.5224 51.0933 42.5224 65.3733 42.5224C65.3733 52.5224 65.3733 52.5224 63.8733 55.4599C56.2196 61.7742 47.235 60.8847 37.8733 60.7099C36.4644 60.6949 35.0556 60.6812 33.6467 60.6689C30.2218 60.6337 26.7977 60.5845 23.3733 60.5224C23.3942 61.4604 23.4152 62.3983 23.4367 63.3647C23.5052 66.8648 23.5552 70.3642 23.593 73.8647C23.613 75.3759 23.6403 76.887 23.675 78.3979C23.7239 80.5776 23.7463 82.7563 23.7639 84.9365C23.7848 86.2457 23.8058 87.5549 23.8274 88.9038C23.2052 93.8618 21.2023 96.6899 17.7185 100.18C14.4119 102.073 11.3171 101.846 7.62326 101.71C6.92588 101.696 6.22849 101.683 5.50998 101.669C3.79741 101.634 2.08523 101.58 0.37326 101.522C0.303866 88.649 0.250503 75.7756 0.217824 62.9021C0.202143 56.9249 0.18086 50.9478 0.146942 44.9707C0.114436 39.2065 0.096426 33.4425 0.0886288 27.6782C0.0830694 25.4749 0.072214 23.2716 0.0560703 21.0683C0.0344128 17.9912 0.0312887 14.9146 0.0326843 11.8374C0.0218985 10.9188 0.0111127 10.0003 0 9.05395C0.00412399 8.2182 0.00824798 7.38245 0.0124969 6.52137C0.00973157 5.79315 0.00696619 5.06494 0.00411701 4.31465C1.08339 -0.925263 7.46681 0.234858 11.6049 0.247781Z" fill="white"/>
<path d="M221.373 29.5225C228.028 29.8652 231.837 35.329 236.248 39.7725C237.14 40.6323 238.032 41.4921 238.951 42.3779C239.789 43.2145 240.627 44.0511 241.49 44.9131C242.259 45.6765 243.029 46.44 243.822 47.2266C245.373 49.5225 245.373 49.5225 245.359 52.0361C244.177 55.0169 242.747 56.65 240.478 58.9131C239.688 59.7046 238.897 60.4961 238.082 61.3115C237.25 62.1236 236.418 62.9357 235.56 63.7725C234.74 64.6 233.919 65.4276 233.074 66.2803C226.011 73.2688 226.011 73.2688 222.373 73.5225C221.383 72.8625 220.393 72.2025 219.373 71.5225C219.081 68.4951 218.977 65.6756 219.01 62.6475C219.009 61.7672 219.009 60.8869 219.008 59.98C219.01 58.1172 219.02 56.2543 219.037 54.3916C219.06 51.5339 219.057 48.6771 219.051 45.8193C219.056 44.012 219.063 42.2047 219.072 40.3975C219.071 39.5391 219.07 38.6808 219.069 37.7964C219.142 31.7535 219.142 31.7535 221.373 29.5225Z" fill="white"/>
</svg>
